<?xml version="1.0" encoding="utf-8"?>
<!-- Generator: Adobe Illustrator 16.0.0, SVG Export Plug-In . SVG Version: 6.00 Build 0)  -->
<!DOCTYPE svg PUBLIC "-//W3C//DTD SVG 1.1//EN" "http://www.w3.org/Graphics/SVG/1.1/DTD/svg11.dtd">
<svg version="1.1" id="Layer_1" xmlns="http://www.w3.org/2000/svg" xmlns:xlink="http://www.w3.org/1999/xlink" x="0px" y="0px"
	 width="152.714px" height="137.985px" viewBox="0 0 152.714 137.985" enable-background="new 0 0 152.714 137.985"
	 xml:space="preserve">
<g>
	<path fill="#FFFFFF" d="M4.441,4.687v130.125h145.064V4.687H4.441z M140.951,127.138H12.996V12.36h127.955V127.138z"/>
	<polygon fill="#FFFFFF" points="62.223,108.398 32.425,108.398 32.425,41.836 23.585,41.836 23.585,116.406 62.223,116.406 	"/>
	<path fill="#FFFFFF" d="M51.585,57.481c1.837-2.487,4.013-4.702,6.526-6.639c2.513-1.938,4.983-2.908,7.41-2.908h0.052
		c4.68,0,7.02,3.493,7.02,10.483v39.23h8.424V57.586c4.867-6.436,9.573-9.651,14.128-9.651h0.052c4.59,0,6.882,3.493,6.882,10.483
		v39.23h8.425V56.515c0-4.749-1.006-8.598-3.021-11.544c-2.01-2.947-5.17-4.42-9.469-4.42c-6.188,0-12.055,3.449-17.615,10.34
		c-0.624-2.869-1.895-5.309-3.818-7.319c-1.92-2.016-4.646-3.021-8.173-3.021c-5.746,0.034-11.354,3.241-16.823,9.616v-8.421h-8.424
		v55.902h8.424V57.481z"/>
	<polygon fill="#FFFFFF" points="121.193,97.644 130.035,97.644 130.035,23.073 91.396,23.073 91.396,31.082 121.193,31.082 	"/>
</g>
</svg>
